#!OML:ASF F:\VICON\USERDATA\INSTALL\rory3\rory3.ASF
:FULLY-SPECIFIED
:DEGREES
395
root -0.0503292 17.8382 9.36525 -1.17793 8.18938 -1.67047
lowerback 7.35659 -1.15945 -3.82302
upperback 0.967523 -1.70152 4.4243
thorax -2.87557 -0.789012 6.9564
lowerneck -15.996 -5.04666 -13.3911
upperneck 32.1843 -5.16933 5.75334
head 14.2563 -3.10116 3.77478
rclavicle 2.22639e-014 0
rhumerus -37.5898 -23.3692 -65.4381
rradius 24.7242
rwrist -9.99691
rhand -12.172 15.0638
rfingers 7.12502
rthumb 13.8913 -14.4523
lclavicle 2.22639e-014 0
lhumerus -35.7194 2.89014 84.5178
lradius 37.168
lwrist -5.01417
lhand 1.57075 31.3487
lfingers 7.12502
lthumb 27.094 59.4245
rfemur -16.4865 -1.42442 24.4982
rtibia 31.7183
rfoot -10.2511 -4.81124
rtoes 27.3743
lfemur -6.41293 -3.45327 -17.0291
ltibia 60.4147
lfoot 34.1302 -6.13243
ltoes 8.24235
396
root -0.0584243 17.8472 9.54523 -1.36911 7.95342 -1.9263
lowerback 7.32937 -1.03393 -3.70205
upperback 1.04216 -1.52356 4.45876
thorax -2.81119 -0.704879 6.90444
lowerneck -15.9748 -5.14181 -13.4213
upperneck 32.3057 -5.35967 5.90018
head 14.3358 -3.17091 3.81141
rclavicle 8.79622e-015 -3.4191e-014
rhumerus -37.2641 -22.7953 -65.8802
rradius 25.0099
rwrist -10.4016
rhand -12.4424 15.2263
rfingers 7.12502
rthumb 13.6306 -14.3074
lclavicle 8.79622e-015 -3.4191e-014
lhumerus -35.6881 2.93666 84.6075
lradius 36.9062
lwrist -5.4489
lhand 1.65949 31.2196
lfingers 7.12502
lthumb 27.1789 59.2821
rfemur -15.549 -0.987325 24.9402
rtibia 31.4793
rfoot -10.5249 -5.09604
rtoes 25.1626
lfemur -7.8151 -2.79699 -16.5917
ltibia 62.249
lfoot 32.2617 -6.61639
ltoes 10.0489
397
root -0.0750178 17.8484 9.71091 -1.41382 7.4042 -2.57599
lowerback 7.20643 -0.800189 -3.25793
upperback 1.13307 -1.17032 4.6361
thorax -2.70495 -0.536842 6.79947
lowerneck -15.9901 -5.18275 -13.5831
upperneck 32.3443 -5.46481 6.18215
head 14.3853 -3.1992 3.94002
rclavicle 3.53837e-014 -2.70347e-014
rhumerus -36.7663 -22.199 -66.3657
rradius 25.2729
rwrist -11.0077
rhand -12.6287 15.491
rfingers 7.12502
rthumb 13.4511 -14.0547
lclavicle 3.53837e-014 -2.70347e-014
lhumerus -35.5496 3.00715 84.7209
lradius 36.7241
lwrist -5.93168
lhand 1.93206 31.4741
lfingers 7.12502
lthumb 27.4396 59.4956
rfemur -14.8707 0.154468 25.9008
rtibia 31.2324
rfoot -10.7068 -5.78849
rtoes 23.1768
lfemur -9.43098 -1.71394 -15.5828
ltibia 64.046
lfoot 29.5815 -7.4851
ltoes 6.87941
398
root -0.0652175 17.8528 9.90633 -1.55996 7.30935 -2.46304
lowerback 7.00683 -0.726658 -3.30798
upperback 1.22221 -1.07808 4.54861
thorax -2.51447 -0.498211 6.719
lowerneck -15.9181 -5.1558 -13.5926
upperneck 32.452 -5.46999 6.28138
head 14.4214 -3.19311 3.98702
rclavicle -3.42904e-015 1.43125e-014
rhumerus -36.4709 -22.0661 -66.4216
rradius 25.3578
rwrist -10.7565
rhand -12.1247 16.3189
rfingers 7.12502
rthumb 13.9369 -13.194
lclavicle -3.42904e-015 1.43125e-014
lhumerus -35.5968 3.09916 84.8206
lradius 36.5073
lwrist -6.22476
lhand 2.07248 31.7138
lfingers 7.12502
lthumb 27.5739 59.714
rfemur -13.8411 0.0630067 25.8341
rtibia 31.0124
rfoot -11.2403 -5.68535
rtoes 23.1736
lfemur -10.4376 -1.24142 -15.7567
ltibia 65.5456
lfoot 26.2702 -7.89386
ltoes 2.20429
399
root -0.0621022 17.8593 10.0837 -1.55275 7.2365 -2.56928
lowerback 6.86819 -0.720049 -3.21824
upperback 1.0841 -1.0596 4.51092
thorax -2.58565 -0.484617 6.62407
lowerneck -15.7962 -5.03677 -13.3152
upperneck 32.7754 -5.34707 6.09874
head 14.5061 -3.1403 3.89625
rclavicle -2.28105e-014 2.38542e-015
rhumerus -36.3904 -21.7666 -66.5507
rradius 25.6453
rwrist -10.3659
rhand -11.6871 16.6124
rfingers 7.12502
rthumb 14.3586 -12.871
lclavicle -2.28105e-014 2.38542e-015
lhumerus -35.9996 3.27626 84.8072
lradius 36.433
lwrist -6.34268
lhand 1.97218 31.8367
lfingers 7.12502
lthumb 27.478 59.8521
rfemur -13.1054 0.0694288 26.0541
rtibia 30.8415
rfoot -11.7536 -5.75693
rtoes 23.4635
lfemur -11.9147 -0.731189 -15.6353
ltibia 67.0204
lfoot 22.7916 -8.5052
ltoes -1.24571
400
root -0.0633894 17.8607 10.2576 -1.60563 7.02343 -2.67844
lowerback 6.74605 -0.570834 -3.17533
upperback 1.209 -0.857792 4.52132
thorax -2.41595 -0.391441 6.58775
lowerneck -16.6062 -5.06344 -13.1876
upperneck 33.4407 -5.29267 6.00664
head 14.9831 -3.11773 3.8593
rclavicle 1.73937e-015 3.02153e-014
rhumerus -35.7912 -21.4829 -66.869
rradius 25.8887
rwrist -10.4987
rhand -11.7531 16.475
rfingers 7.12502
rthumb 14.295 -13.0129
lclavicle 1.73937e-015 3.02153e-014
lhumerus -35.8854 3.41444 84.9475
lradius 36.4129
lwrist -6.44602
lhand 1.95181 32.1399
lfingers 7.12502
lthumb 27.4585 60.1584
rfemur -12.3387 0.229774 26.318
rtibia 30.7119
rfoot -12.1296 -5.91923
rtoes 22.949
lfemur -13.2938 -0.097738 -15.4941
ltibia 68.3315
lfoot 18.9244 -9.05162
ltoes -4.54211
401
root -0.061943 17.8558 10.4334 -1.71012 6.79225 -2.68346
lowerback 6.75577 -0.412715 -3.18831
upperback 1.22326 -0.649526 4.4617
thorax -2.43575 -0.286886 6.51404
lowerneck -17.1269 -5.05665 -13.1288
upperneck 34.2206 -5.26938 6.06517
head 15.4712 -3.10507 3.90165
rclavicle 2.07233e-014 -4.13472e-014
rhumerus -35.5962 -21.3304 -66.9111
rradius 26.148
rwrist -10.2944
rhand -11.2377 16.8726
rfingers 7.12502
rthumb 14.7915 -12.5795
lclavicle 2.07233e-014 -4.13472e-014
lhumerus -36.0173 3.407 85.0315
lradius 36.3563
lwrist -6.36547
lhand 1.69935 32.2121
lfingers 7.12502
lthumb 27.217 60.2687
rfemur -11.4966 0.3386 26.4436
rtibia 30.5717
rfoot -12.4313 -6.00849
rtoes 22.3585
lfemur -14.4177 0.464415 -15.4989
ltibia 69.4652
lfoot 15.1353 -9.19164
ltoes -6.45596
402
root -0.0670729 17.8527 10.6054 -1.74498 6.58585 -2.9384
lowerback 6.7944 -0.299406 -3.03862
upperback 1.15957 -0.485408 4.49527
thorax -2.54698 -0.201194 6.45094
lowerneck -17.3576 -5.10634 -13.0076
upperneck 34.6635 -5.32258 5.94779
head 15.7399 -3.13586 3.83283
rclavicle 5.2181e-015 1.03368e-014
rhumerus -35.3905 -21.0812 -67.0269
rradius 26.4911
rwrist -9.8695
rhand -10.8879 17.0494
rfingers 7.12502
rthumb 15.1285 -12.3777
lclavicle 5.2181e-015 1.03368e-014
lhumerus -36.2078 3.47329 85.0844
lradius 36.2694
lwrist -6.2502
lhand 1.16741 31.9146
lfingers 7.12502
lthumb 26.7081 60.0499
rfemur -10.7718 0.690753 26.8888
rtibia 30.4334
rfoot -12.8363 -6.31492
rtoes 21.966
lfemur -15.7057 1.07776 -15.1397
ltibia 70.4195
lfoot 12.3081 -9.19382
ltoes -7.72887
403
root -0.0687672 17.8489 10.7717 -1.74924 6.42886 -3.18364
lowerback 6.91161 -0.221873 -2.86744
upperback 0.992609 -0.365934 4.51591
thorax -2.80317 -0.132338 6.368
lowerneck -17.0785 -5.09412 -12.8379
upperneck 34.736 -5.32174 5.72124
head 15.6944 -3.14958 3.70886
rclavicle -5.41688e-015 -4.77083e-015
rhumerus -35.1127 -20.4217 -67.4392
rradius 26.7866
rwrist -10.2906
rhand -11.4318 17.0713
rfingers 7.12502
rthumb 14.6045 -12.3945
lclavicle -5.41688e-015 -4.77083e-015
lhumerus -36.6358 3.68353 85.0671
lradius 36.3605
lwrist -6.21658
lhand 1.1231 32.2203
lfingers 7.12502
lthumb 26.6657 60.362
rfemur -10.0939 0.858541 27.2869
rtibia 30.2783
rfoot -13.3179 -6.42778
rtoes 21.8602
lfemur -17.0753 1.65478 -14.8435
ltibia 71.1662
lfoot 10.0831 -8.94959
ltoes -10.7148
404
root -0.0624078 17.8409 10.9396 -1.80411 6.30651 -3.37238
lowerback 6.79715 -0.139092 -2.64099
upperback 1.03779 -0.239653 4.48733
thorax -2.70997 -0.0748086 6.19282
lowerneck -16.8891 -5.07452 -12.7672
upperneck 34.6369 -5.34312 5.73128
head 15.6003 -3.14732 3.69567
rclavicle 5.61567e-015 1.82882e-014
rhumerus -34.6256 -19.7723 -67.9968
rradius 27.2383
rwrist -11.3002
rhand -11.8664 17.8468
rfingers 7.12502
rthumb 14.1858 -11.6488
lclavicle 5.61567e-015 1.82882e-014
lhumerus -36.7993 3.82114 85.0784
lradius 36.5432
lwrist -6.1321
lhand 1.50228 32.742
lfingers 7.12502
lthumb 27.0285 60.828
rfemur -9.31761 0.7142 27.5501
rtibia 30.0829
rfoot -13.7587 -6.24175
rtoes 21.7337
lfemur -18.3249 2.11039 -14.7111
ltibia 71.7303
lfoot 8.0106 -8.4942
ltoes -12.4576
